# xmcd CD database file generated by Grip 3.3.1
# 
# Track frame offsets:
#       182
#       13897
#       28587
#       44207
#       61457
#       74820
#       89530
#       103837
#       117712
#       131125
#       143530
#       162625
#       177432
#       192202
#       206640
#       220745
#       232392
#       247000
#       259647
#       271287
# 
# Disc length: 3810 seconds
# 
# Revision: 1
# Processed by: cddbd v1.5.2PL0 Copyright (c) Steve Scherf et al.
# Submitted via: Grip 3.3.1
# 
DISCID=4c0ee014
DTITLE=Coleman Hawkins - Hawk's Groove
DYEAR=1996
DGENRE=Jazz
TTITLE0=Body and Soul
TTITLE1=She's funny that way
TTITLE2=One o'clock jump
TTITLE3=I surrender, dear
TTITLE4=Forgive a fool
TTITLE5=Bugle call rag
TTITLE6=9:20 special
TTITLE7=Bouncing with bean
TTITLE8=The Sheik of Araby
TTITLE9=Smack
TTITLE10=I can't believe that you're in love with me
TTITLE11=Passin' it around
TTITLE12=When day is done
TTITLE13=Dedication
TTITLE14=Serenade to a sleeping beauty
TTITLE15=Fine dinner
TTITLE16=Rocky comfort
TTITLE17=My blue heaven
TTITLE18=Meet Doctor Foo
TTITLE19=Feedin' the bean
EXTD=YEAR: 1996
EXTT0=
EXTT1=
EXTT2=
EXTT3=
EXTT4=
EXTT5=
EXTT6=
EXTT7=
EXTT8=
EXTT9=
EXTT10=
EXTT11=
EXTT12=
EXTT13=
EXTT14=
EXTT15=
EXTT16=
EXTT17=
EXTT18=
EXTT19=
PLAYORDER=
